<svg xmlns="http://www.w3.org/2000/svg" xmlns:xlink="http://www.w3.org/1999/xlink" width="100" zoomAndPan="magnify" viewBox="0 0 75 74.999997" height="100" preserveAspectRatio="xMidYMid meet" version="1.0"><defs><filter x="0%" y="0%" width="100%" height="100%" id="8bde785b2a"><feColorMatrix values="0 0 0 0 1 0 0 0 0 1 0 0 0 0 1 0 0 0 1 0" color-interpolation-filters="sRGB"/></filter><g/><clipPath id="0ab7a14eb9"><path d="M 3.777344 2.601562 L 68.277344 2.601562 L 68.277344 66.351562 L 3.777344 66.351562 Z M 3.777344 2.601562 " clip-rule="nonzero"/></clipPath><mask id="b7a8a85ce6"><g filter="url(#8bde785b2a)"><rect x="-7.5" width="90" fill="#000000" y="-7.5" height="89.999996" fill-opacity="0.8"/></g></mask><clipPath id="0d295017e2"><path d="M 2 4 L 65.277344 4 L 65.277344 64 L 2 64 Z M 2 4 " clip-rule="nonzero"/></clipPath><clipPath id="28bb20fbc4"><path d="M 17 59 L 32 59 L 32 64.351562 L 17 64.351562 Z M 17 59 " clip-rule="nonzero"/></clipPath><clipPath id="1ac3f044c9"><path d="M 1 0.640625 L 52 0.640625 L 52 59 L 1 59 Z M 1 0.640625 " clip-rule="nonzero"/></clipPath><clipPath id="c8903dade8"><path d="M 2 21 L 64 21 L 64 64.351562 L 2 64.351562 Z M 2 21 " clip-rule="nonzero"/></clipPath><clipPath id="d38ca8b893"><rect x="0" width="66" y="0" height="65"/></clipPath></defs><rect x="-7.5" width="90" fill="#ffffff" y="-7.5" height="89.999996" fill-opacity="1"/><rect x="-7.5" width="90" fill="#ffffff" y="-7.5" height="89.999996" fill-opacity="1"/><rect x="-7.5" width="90" fill="#ffffff" y="-7.5" height="89.999996" fill-opacity="1"/><g clip-path="url(#0ab7a14eb9)"><g mask="url(#b7a8a85ce6)"><g transform="matrix(1, 0, 0, 1, 3, 2)"><g clip-path="url(#d38ca8b893)"><g clip-path="url(#0d295017e2)"><path fill="#004aad" d="M 60.277344 25.734375 C 59.101562 22.21875 57.265625 18.9375 54.882812 16.132812 C 52.496094 13.296875 49.5625 10.9375 46.261719 9.230469 C 42.960938 7.5 39.292969 6.449219 35.519531 6.160156 C 31.746094 5.875 27.894531 6.320312 24.277344 7.605469 C 24.277344 7.632812 24.277344 7.65625 24.226562 7.710938 C 24.121094 7.816406 23.910156 7.945312 23.648438 8.050781 C 23.386719 8.183594 23.097656 8.285156 22.808594 8.390625 C 21.210938 8.96875 19.664062 9.730469 18.171875 10.59375 C 15.5 12.351562 13.195312 14.609375 11.308594 17.152344 C 11.675781 16.628906 12.09375 16.15625 12.484375 15.660156 C 12.90625 15.1875 13.324219 14.714844 13.769531 14.269531 C 14.636719 13.351562 15.605469 12.535156 16.601562 11.800781 C 16.886719 11.566406 17.175781 11.382812 17.386719 11.277344 C 17.59375 11.171875 17.726562 11.148438 17.753906 11.226562 C 17.753906 11.304688 17.648438 11.433594 17.4375 11.644531 C 17.253906 11.855469 16.96875 12.089844 16.679688 12.328125 C 14.058594 14.398438 11.726562 17.152344 10.023438 20.144531 C 8.292969 23.136719 7.195312 26.363281 6.484375 29.300781 C 5.988281 33.132812 6.355469 37.039062 7.480469 40.632812 C 8.609375 44.226562 10.519531 47.535156 12.957031 50.234375 C 15.394531 52.9375 18.382812 55.089844 21.578125 56.507812 C 24.773438 57.921875 28.207031 58.632812 31.535156 58.65625 C 31.796875 58.65625 32.113281 58.683594 32.242188 58.734375 C 32.425781 58.789062 32.375 58.839844 32.136719 58.839844 C 28.652344 59 24.957031 58.394531 21.421875 56.898438 C 19.664062 56.140625 17.9375 55.195312 16.339844 54.015625 C 14.738281 52.832031 13.21875 51.441406 11.882812 49.867188 C 10.546875 48.292969 9.367188 46.5625 8.425781 44.648438 C 7.480469 42.757812 6.722656 40.738281 6.222656 38.613281 C 5.753906 36.488281 5.515625 34.3125 5.542969 32.082031 L 5.542969 31.660156 L 5.570312 31.242188 L 5.621094 30.402344 C 5.671875 29.851562 5.726562 29.300781 5.804688 28.75 C 5.988281 27.648438 6.171875 26.546875 6.484375 25.46875 L 6.695312 24.683594 L 6.957031 23.898438 C 7.113281 23.371094 7.324219 22.875 7.535156 22.375 C 6.199219 25.207031 5.332031 28.355469 5.042969 31.6875 C 5.125 32.027344 5.148438 32.582031 5.148438 33.234375 C 5.203125 34.808594 5.386719 36.359375 5.671875 37.878906 C 5.671875 37.800781 5.699219 37.773438 5.726562 37.75 C 5.832031 37.75 6.015625 38.300781 6.144531 38.957031 C 6.957031 42.757812 8.582031 46.351562 10.863281 49.5 C 10.914062 49.582031 10.964844 49.660156 11.019531 49.710938 C 13.953125 53.515625 17.859375 56.558594 22.234375 58.394531 C 26.609375 60.285156 31.429688 60.964844 36.121094 60.441406 C 36.410156 60.414062 36.695312 60.363281 36.984375 60.335938 C 37.273438 60.285156 37.5625 60.257812 37.851562 60.207031 L 38.714844 60.023438 L 39.160156 59.941406 L 39.578125 59.839844 L 40.445312 59.628906 L 41.28125 59.367188 C 41.859375 59.207031 42.382812 58.972656 42.960938 58.789062 C 44.058594 58.34375 45.132812 57.898438 46.15625 57.320312 C 46.679688 57.058594 47.179688 56.742188 47.675781 56.453125 C 47.9375 56.296875 48.171875 56.140625 48.410156 55.980469 C 48.644531 55.824219 48.90625 55.667969 49.144531 55.484375 C 52.96875 52.753906 56.035156 49.027344 58.027344 44.804688 C 58.105469 44.542969 58.261719 44.203125 58.390625 44.042969 C 58.523438 43.859375 58.574219 43.914062 58.496094 44.175781 C 58.550781 44.175781 58.628906 44.148438 58.601562 44.226562 C 57.398438 47.507812 55.589844 50.523438 53.203125 53.175781 C 50.792969 55.796875 47.78125 58.027344 44.164062 59.550781 C 41.675781 60.597656 39.054688 61.28125 36.382812 61.59375 C 39.160156 61.4375 41.804688 60.941406 44.164062 60.285156 C 47.464844 58.945312 50.53125 56.976562 53.125 54.566406 C 55.71875 52.152344 57.894531 49.34375 59.570312 46.328125 L 59.386719 46.535156 C 59.519531 46.273438 59.675781 46.011719 59.808594 45.828125 C 59.9375 45.644531 60.015625 45.515625 60.070312 45.539062 C 60.121094 45.539062 60.121094 45.644531 60.070312 45.855469 C 60.015625 46.039062 59.914062 46.300781 59.753906 46.589844 C 59.074219 48.058594 58.261719 49.5 57.316406 50.867188 C 56.375 52.230469 55.300781 53.488281 54.148438 54.695312 C 52.96875 55.875 51.710938 56.976562 50.347656 57.949219 C 48.984375 58.917969 47.519531 59.785156 46 60.519531 C 39.894531 63.484375 32.6875 64.191406 25.980469 62.539062 C 22.625 61.699219 19.402344 60.285156 16.519531 58.34375 C 13.640625 56.402344 11.070312 53.960938 8.976562 51.152344 C 6.878906 48.347656 5.28125 45.148438 4.257812 41.789062 C 3.210938 38.429688 2.816406 34.863281 2.949219 31.320312 C 3.183594 25.707031 5.070312 20.199219 8.242188 15.605469 C 11.386719 10.988281 15.839844 7.316406 20.949219 5.035156 C 21.710938 4.667969 22.441406 4.484375 22.96875 4.351562 C 23.492188 4.246094 23.859375 4.246094 23.882812 4.378906 C 23.910156 4.613281 22.707031 5.21875 21.238281 5.898438 C 16.363281 8.101562 12.171875 11.671875 9.183594 16.050781 C 6.171875 20.433594 4.363281 25.601562 4.050781 30.925781 C 3.917969 33.261719 3.996094 35.625 4.414062 37.90625 C 4.808594 40.1875 5.488281 42.445312 6.382812 44.570312 C 5.019531 41.210938 4.363281 37.617188 4.363281 34.050781 C 4.285156 32.683594 4.335938 31.320312 4.46875 29.957031 C 4.597656 28.59375 4.863281 27.226562 5.175781 25.863281 C 5.542969 24.527344 5.960938 23.1875 6.511719 21.902344 C 7.0625 20.617188 7.691406 19.359375 8.425781 18.152344 C 10.179688 15.214844 12.40625 12.695312 14.949219 10.648438 C 17.492188 8.601562 20.347656 6.976562 23.414062 5.875 C 26.453125 4.773438 29.675781 4.140625 32.976562 4.035156 C 34.628906 3.984375 36.277344 4.0625 37.929688 4.273438 C 39.578125 4.484375 41.257812 4.851562 42.878906 5.324219 C 46.078125 6.265625 48.90625 7.65625 51.449219 9.285156 C 52.707031 10.125 53.886719 11.015625 55.011719 11.984375 C 56.113281 12.957031 57.160156 14.007812 58.105469 15.109375 C 59.074219 16.210938 59.9375 17.390625 60.722656 18.625 C 61.511719 19.855469 62.21875 21.195312 62.847656 22.558594 C 63.449219 23.949219 63.972656 25.390625 64.367188 26.914062 C 64.757812 28.433594 65.046875 30.007812 65.207031 31.660156 C 65.257812 32.238281 65.230469 32.894531 65.152344 33.105469 C 65.125 33.210938 65.074219 33.210938 65.023438 33.105469 C 64.96875 33 64.941406 32.789062 64.917969 32.5 C 64.394531 26.179688 61.957031 20.460938 58.210938 15.867188 C 57.292969 14.714844 56.242188 13.640625 55.144531 12.640625 C 54.59375 12.117188 54.015625 11.671875 53.441406 11.171875 C 53.152344 10.9375 52.835938 10.726562 52.550781 10.492188 C 52.261719 10.253906 51.921875 10.070312 51.632812 9.835938 C 50.375 8.996094 49.066406 8.207031 47.675781 7.550781 C 46.289062 6.898438 44.820312 6.320312 43.328125 5.875 C 40.101562 4.902344 36.800781 4.484375 33.527344 4.535156 C 30.25 4.613281 27.027344 5.191406 23.960938 6.292969 C 20.898438 7.394531 18.015625 8.996094 15.445312 11.066406 C 12.878906 13.140625 10.652344 15.660156 8.898438 18.542969 C 8.425781 19.332031 7.980469 20.117188 7.585938 20.933594 C 8.292969 19.621094 9.078125 18.359375 9.972656 17.207031 C 10.863281 16.050781 11.832031 14.976562 12.851562 13.980469 C 16.730469 9.941406 21.734375 7.132812 27.105469 5.925781 C 32.480469 4.71875 38.164062 5.085938 43.378906 7.027344 C 45.394531 7.789062 47.335938 8.734375 49.117188 9.886719 C 50.925781 11.042969 52.574219 12.40625 54.070312 13.902344 C 54.460938 14.269531 54.804688 14.6875 55.167969 15.082031 C 55.535156 15.476562 55.851562 15.894531 56.191406 16.316406 C 56.847656 17.152344 57.476562 18.046875 58.027344 18.964844 C 59.125 20.800781 60.042969 22.769531 60.699219 24.867188 C 60.855469 25.390625 61.011719 25.917969 61.039062 26.335938 C 61.089844 26.757812 61.089844 27.070312 61.011719 27.203125 C 60.960938 27.308594 60.828125 27.203125 60.699219 26.941406 C 60.59375 26.675781 60.4375 26.257812 60.277344 25.734375 Z M 21.917969 59.785156 C 20.058594 59.078125 18.277344 58.160156 16.601562 57.058594 C 19.824219 59.3125 23.515625 60.914062 27.367188 61.726562 C 31.222656 62.539062 35.257812 62.566406 39.132812 61.777344 C 36.277344 62.226562 33.316406 62.304688 30.382812 61.988281 C 27.472656 61.648438 24.589844 60.914062 21.917969 59.785156 Z M 21.917969 59.785156 " fill-opacity="1" fill-rule="nonzero"/></g><g clip-path="url(#28bb20fbc4)"><path fill="#004aad" d="M 30.773438 64.21875 C 28.417969 63.957031 26.085938 63.40625 23.832031 62.671875 C 21.578125 61.9375 19.429688 61.019531 17.4375 60.023438 C 17.253906 59.917969 17.125 59.890625 17.203125 59.96875 C 17.28125 60.074219 17.492188 60.207031 17.699219 60.308594 C 19.613281 61.253906 21.710938 62.148438 23.882812 62.828125 C 26.058594 63.535156 28.363281 64.0625 30.617188 64.324219 C 30.878906 64.351562 31.117188 64.351562 31.140625 64.296875 C 31.195312 64.296875 31.011719 64.246094 30.773438 64.21875 Z M 30.773438 64.21875 " fill-opacity="1" fill-rule="nonzero"/></g><g clip-path="url(#1ac3f044c9)"><path fill="#004aad" d="M 14.660156 58.472656 C 11.59375 56.425781 8.816406 53.75 6.617188 50.578125 C 4.441406 47.402344 2.792969 43.730469 1.925781 39.847656 C 1.0625 35.964844 0.929688 31.871094 1.585938 27.859375 C 2.242188 23.84375 3.707031 19.933594 5.855469 16.472656 C 9.34375 10.804688 14.476562 6.476562 20.320312 3.878906 C 20.6875 3.722656 21.054688 3.539062 21.421875 3.40625 L 22.546875 2.988281 C 23.308594 2.726562 24.066406 2.464844 24.828125 2.277344 C 25.585938 2.042969 26.375 1.886719 27.160156 1.726562 C 27.945312 1.597656 28.730469 1.441406 29.542969 1.359375 C 30.328125 1.257812 31.140625 1.203125 31.953125 1.152344 C 32.347656 1.125 32.765625 1.125 33.160156 1.125 C 33.554688 1.097656 33.972656 1.125 34.363281 1.125 C 34.757812 1.152344 35.175781 1.125 35.570312 1.152344 C 35.964844 1.175781 36.382812 1.203125 36.777344 1.230469 C 37.167969 1.257812 37.589844 1.308594 37.980469 1.359375 C 38.191406 1.386719 38.375 1.414062 38.582031 1.441406 L 39.1875 1.542969 C 41.308594 1.886719 43.40625 2.4375 45.371094 3.144531 C 47.363281 3.851562 49.222656 4.71875 50.976562 5.691406 C 51.265625 5.847656 51.476562 5.925781 51.398438 5.820312 C 51.292969 5.691406 51.003906 5.480469 50.664062 5.296875 C 46.996094 3.25 42.960938 1.859375 38.765625 1.230469 C 34.574219 0.601562 30.277344 0.757812 26.085938 1.703125 C 21.917969 2.648438 17.910156 4.429688 14.398438 6.949219 C 10.941406 9.390625 7.925781 12.589844 5.699219 16.289062 C 3.550781 19.804688 2.082031 23.738281 1.457031 27.804688 C 0.800781 31.871094 0.929688 36.015625 1.820312 39.976562 C 2.710938 43.941406 4.390625 47.664062 6.667969 50.867188 C 8.921875 54.066406 11.777344 56.769531 14.921875 58.816406 C 15.082031 58.917969 15.210938 58.945312 15.160156 58.867188 C 15.054688 58.761719 14.816406 58.578125 14.660156 58.472656 Z M 14.660156 58.472656 " fill-opacity="1" fill-rule="nonzero"/></g><path fill="#004aad" d="M 26.214844 1.992188 C 23.988281 2.542969 21.8125 3.355469 19.746094 4.378906 C 17.699219 5.402344 15.734375 6.632812 13.953125 8.078125 C 12.144531 9.492188 10.46875 11.121094 9 12.878906 C 7.507812 14.660156 6.199219 16.601562 5.070312 18.675781 C 3.839844 20.90625 2.949219 23.292969 2.371094 25.757812 C 1.796875 28.226562 1.507812 30.796875 1.636719 33.445312 C 1.691406 35.203125 1.953125 36.882812 2.292969 38.535156 C 2.632812 40.160156 3.105469 41.734375 3.65625 43.257812 C 3.917969 44.019531 4.257812 44.777344 4.574219 45.515625 C 4.757812 45.882812 4.914062 46.25 5.097656 46.617188 C 5.28125 46.984375 5.464844 47.351562 5.671875 47.71875 C 6.460938 49.160156 7.324219 50.578125 8.347656 51.96875 C 8.476562 52.152344 8.632812 52.308594 8.714844 52.335938 C 8.738281 52.308594 8.660156 52.175781 8.53125 51.992188 C 6.382812 48.976562 4.703125 45.75 3.550781 42.339844 C 2.425781 38.929688 1.847656 35.308594 1.925781 31.558594 C 1.980469 29.824219 2.1875 28.09375 2.53125 26.390625 C 2.871094 24.734375 3.367188 23.082031 3.996094 21.484375 C 5.253906 18.28125 7.0625 15.34375 9.238281 12.746094 C 13.664062 7.578125 19.640625 3.851562 26.292969 2.121094 C 26.582031 2.042969 26.742188 1.992188 26.742188 1.9375 C 26.714844 1.910156 26.476562 1.9375 26.214844 1.992188 Z M 26.214844 1.992188 " fill-opacity="1" fill-rule="nonzero"/><path fill="#004aad" d="M 7.089844 30.558594 C 6.851562 32.738281 6.878906 34.992188 7.21875 37.199219 C 7.558594 39.402344 8.1875 41.578125 9.105469 43.597656 C 10.023438 45.617188 11.203125 47.457031 12.539062 49.054688 C 13.902344 50.65625 15.421875 51.992188 16.96875 53.070312 C 17.125 53.175781 17.175781 53.175781 17.097656 53.042969 C 17.019531 52.9375 16.808594 52.753906 16.679688 52.648438 C 15.160156 51.574219 13.691406 50.234375 12.433594 48.636719 C 11.175781 47.035156 10.050781 45.226562 9.210938 43.257812 C 8.371094 41.289062 7.769531 39.191406 7.457031 37.066406 C 7.167969 34.941406 7.113281 32.765625 7.324219 30.664062 C 7.351562 30.273438 7.375 29.902344 7.296875 29.851562 C 7.246094 29.851562 7.140625 30.140625 7.089844 30.558594 Z M 7.089844 30.558594 " fill-opacity="1" fill-rule="nonzero"/><g clip-path="url(#c8903dade8)"><path fill="#004aad" d="M 33.132812 63.589844 C 30.773438 63.5625 28.417969 63.25 26.113281 62.671875 C 23.832031 62.09375 21.605469 61.226562 19.507812 60.152344 C 17.414062 59.078125 15.472656 57.738281 13.664062 56.242188 C 11.882812 54.75 10.257812 53.042969 8.816406 51.207031 C 6.222656 47.558594 4.414062 43.414062 3.5 39.058594 C 3.394531 38.429688 3.210938 37.933594 3.132812 37.957031 C 3.027344 37.957031 3.054688 38.507812 3.160156 39.140625 C 3.578125 41.367188 4.257812 43.546875 5.148438 45.617188 C 5.097656 45.566406 5.042969 45.566406 5.042969 45.59375 C 1.796875 38.300781 1.507812 29.71875 4.285156 22.164062 C 4.441406 21.746094 4.519531 21.429688 4.46875 21.402344 C 4.414062 21.378906 4.234375 21.691406 4.074219 22.113281 C 2.609375 26.046875 1.980469 30.296875 2.1875 34.46875 C 2.398438 38.640625 3.472656 42.757812 5.308594 46.484375 C 5.410156 46.773438 5.570312 47.089844 5.753906 47.429688 C 6.566406 48.976562 7.507812 50.445312 8.582031 51.808594 C 9.628906 53.175781 10.808594 54.433594 12.066406 55.613281 C 14.582031 57.949219 17.492188 59.863281 20.6875 61.28125 C 22.96875 62.277344 25.324219 63.039062 27.710938 63.511719 C 30.121094 63.984375 32.53125 64.167969 34.96875 64.113281 C 37.40625 64.0625 39.816406 63.695312 42.148438 63.039062 C 44.503906 62.382812 46.785156 61.464844 48.90625 60.257812 C 52.289062 58.34375 55.167969 55.691406 57.605469 52.648438 C 58.628906 51.390625 59.597656 50 60.410156 48.609375 C 60.828125 47.902344 61.171875 47.191406 61.511719 46.484375 C 61.824219 45.75 62.113281 45.042969 62.347656 44.332031 C 63.605469 40.398438 63.816406 36.671875 63.449219 33.210938 C 63.421875 33 63.398438 32.972656 63.371094 33.132812 C 63.34375 33.261719 63.320312 33.550781 63.34375 33.707031 C 63.503906 35.441406 63.503906 37.277344 63.265625 39.140625 C 63.054688 40.976562 62.664062 42.839844 62.164062 44.570312 C 60.855469 47.847656 58.996094 50.890625 56.714844 53.542969 C 54.410156 56.191406 51.710938 58.449219 48.699219 60.257812 C 47.492188 60.886719 46.234375 61.4375 44.976562 61.859375 C 43.71875 62.304688 42.433594 62.617188 41.152344 62.90625 C 38.53125 63.378906 35.886719 63.640625 33.132812 63.589844 Z M 33.132812 63.589844 " fill-opacity="1" fill-rule="nonzero"/></g></g></g></g></g><g fill="#004aad" fill-opacity="1"><g transform="translate(14.849999, 37.900573)"><g><path d="M -1 0 L -1 -0.75 L 2.5 -2.171875 L 12.796875 -29.234375 L 13.375 -29.234375 L 23.109375 -1.28125 L 26.390625 -0.75 L 26.390625 0 L 15.90625 0 L 15.90625 -0.75 L 18.828125 -1.21875 L 15.796875 -9.65625 L 6.3125 -9.65625 L 3.421875 -2.171875 L 6.625 -0.75 L 6.625 0 Z M 6.59375 -10.40625 L 15.546875 -10.40625 L 11.265625 -22.96875 Z M 6.59375 -10.40625 "/></g></g></g><g fill="#004aad" fill-opacity="1"><g transform="translate(37.499998, 53.534633)"><g><path d="M 21.496094 -26.441406 C 20.996094 -26.871094 20.386719 -27.15625 19.742188 -27.40625 C 18.128906 -28.089844 16.585938 -28.375 14.867188 -27.945312 C 13.21875 -27.515625 11.644531 -26.65625 10.390625 -25.507812 C 9.53125 -24.71875 8.023438 -23.394531 7.847656 -22.140625 L 8.097656 -22.5 C 7.738281 -21.820312 7.488281 -21.136719 7.34375 -20.492188 C 7.308594 -20.492188 7.417969 -21.066406 7.453125 -21.066406 C 6.878906 -21.066406 7.058594 -18.878906 7.09375 -18.558594 C 7.164062 -17.089844 7.558594 -15.585938 8.132812 -14.222656 C 8.921875 -12.359375 9.78125 -10.53125 10.496094 -8.671875 L 11.140625 -7.058594 C 11.214844 -6.808594 11.320312 -6.519531 11.429688 -6.269531 C 11.464844 -6.269531 11.609375 -5.984375 11.609375 -6.019531 C 11.644531 -5.730469 11.714844 -5.515625 11.785156 -5.265625 C 11.714844 -5.445312 11.570312 -5.695312 11.570312 -5.839844 C 11.5 -5.589844 11.714844 -5.265625 11.785156 -5.085938 C 11.859375 -4.730469 11.894531 -4.40625 11.894531 -4.046875 C 11.824219 -3.117188 11.5 -2.222656 11.035156 -1.433594 C 10.101562 0.109375 8.5625 1.363281 6.84375 1.898438 C 5.589844 2.257812 4.046875 2.257812 3.476562 0.894531 C 2.972656 -0.214844 3.1875 -1.578125 3.4375 -2.722656 C 3.582031 -3.367188 3.761719 -4.011719 4.046875 -4.621094 C 4.261719 -5.195312 5.410156 -6.734375 5.085938 -7.308594 C 4.300781 -8.707031 1.648438 -5.195312 1.289062 -4.621094 C -0.214844 -2.183594 -0.929688 1.792969 2.148438 3.367188 C 4.300781 4.441406 7.128906 4.261719 9.277344 3.402344 C 10.03125 3.117188 13.292969 1.753906 13.257812 0.679688 L 12.539062 1.183594 C 15.011719 -0.96875 16.015625 -3.582031 15.046875 -6.808594 C 14.582031 -8.3125 13.722656 -9.53125 12.898438 -10.855469 C 12.289062 -11.929688 12.109375 -12.96875 11.609375 -14.078125 C 12.289062 -12.71875 13.113281 -11.394531 13.828125 -10.03125 C 12.359375 -13.398438 9.53125 -17.410156 11.429688 -21.171875 C 12.289062 -22.859375 13.828125 -24.253906 15.511719 -25.078125 C 16.480469 -25.542969 17.625 -25.9375 18.738281 -25.902344 C 20.0625 -25.796875 19.777344 -24.933594 19.777344 -24.039062 C 19.847656 -24.578125 20.171875 -25.152344 19.632812 -25.6875 C 19.132812 -26.117188 18.308594 -25.972656 17.699219 -25.867188 C 16.300781 -25.617188 15.011719 -25.042969 13.902344 -24.21875 C 14.6875 -24.828125 15.585938 -25.328125 16.515625 -25.652344 C 17.339844 -25.9375 18.558594 -26.296875 19.382812 -25.9375 C 21.425781 -25.007812 18.808594 -21.101562 17.839844 -19.777344 C 18.019531 -20.097656 18.308594 -20.707031 18.378906 -20.78125 C 17.878906 -20.816406 16.875 -18.308594 16.625 -18.164062 C 15.765625 -17.269531 16.804688 -17.160156 17.519531 -17.589844 C 18.308594 -18.058594 18.953125 -18.808594 19.5625 -19.417969 C 20.386719 -20.277344 21.136719 -21.171875 21.78125 -22.140625 C 22.210938 -22.785156 23 -23.824219 22.570312 -24.613281 C 22.285156 -25.292969 22.105469 -25.9375 21.496094 -26.441406 Z M 1.46875 2.578125 C -0.394531 0.25 0.464844 -2.832031 2.148438 -5.125 C 0.679688 -3.007812 0.0703125 0.824219 1.46875 2.578125 Z M 10.710938 -18.273438 C 10.746094 -18.09375 10.710938 -17.914062 10.710938 -17.769531 Z M 10.710938 -18.273438 "/></g></g></g></svg>